<svg width="31" height="30" viewBox="0 0 31 30" fill="none" xmlns="http://www.w3.org/2000/svg">
<path fill-rule="evenodd" clip-rule="evenodd" d="M26.3665 25.5642H21.9304V18.6014C21.9304 16.9414 21.9013 14.8055 19.6243 14.8055C17.3156 14.8055 16.9633 16.6147 16.9633 18.4831V25.5642H12.5313V11.247H16.7846V13.2046H16.8453C17.437 12.0787 18.8855 10.892 21.0445 10.892C25.5363 10.892 26.3665 13.8563 26.3665 17.7122V25.5642ZM7.52757 9.29114C6.10233 9.29114 4.95381 8.13527 4.95381 6.71022C4.95381 5.28601 6.10233 4.13013 7.52757 4.13013C8.947 4.13013 10.0997 5.28601 10.0997 6.71022C10.0997 8.13527 8.947 9.29114 7.52757 9.29114ZM5.30618 25.5642H9.7473V11.247H5.30618V25.5642ZM28.5763 0H3.07982C1.86234 0 0.872559 0.968365 0.872559 2.1634V27.8359C0.872559 29.0309 1.86234 30.001 3.07982 30.001H28.5763C29.7971 30.001 30.7894 29.0309 30.7894 27.8359V2.1634C30.7894 0.968365 29.7971 0 28.5763 0Z" fill="#F4F4F4"/>
</svg>
