<svg class="logo" viewBox="0 0 175 50" fill="none" xmlns="http://www.w3.org/2000/svg">
<path d="M54.8265 21.3007L44.7002 3.70844C43.3707 1.40665 40.9302 0 38.3075 0H18.055C15.4141 0 12.9736 1.40665 11.6441 3.70844L1.51779 21.3007C0.206472 23.5842 0.206472 26.4158 1.51779 28.6993L11.6441 46.2916C12.9554 48.5751 15.3959 50 18.0367 50H38.2893C40.9302 50 43.3707 48.5933 44.682 46.2916L54.8083 28.6993C56.1378 26.4158 56.1378 23.5842 54.8265 21.3007ZM26.3418 14.9616L31.1317 23.2919C31.7327 24.3515 31.7327 25.6668 31.1317 26.7263L26.3418 35.0566L26.105 35.4585H26.5785H36.1766C38.0708 35.4585 39.6006 36.9931 39.6006 38.8929C39.6006 40.7928 38.0708 42.3274 36.1766 42.3274H20.1859C18.9656 42.3274 17.8364 41.6697 17.2172 40.6102C16.6162 39.5506 16.6162 38.2353 17.2172 37.1757L24.138 25.137L24.2109 25.0091L24.138 24.8813L17.2172 12.8425C16.6162 11.783 16.6162 10.4677 17.2172 9.40811C17.8182 8.34856 18.9656 7.6909 20.1859 7.6909H36.1766C38.0708 7.6909 39.6006 9.22543 39.6006 11.1253C39.6006 13.0252 38.0708 14.5597 36.1766 14.5597H26.5785H26.105L26.3418 14.9616Z" fill="#F4F4F4"/>
<path d="M68.0854 31.8234C68.0854 31.2936 68.3586 30.8369 68.8868 30.4533C69.1782 30.2706 69.4696 30.1793 69.7792 30.1793C70.2163 30.1793 70.617 30.3802 71.0177 30.7638C71.6369 31.4032 72.2743 31.8782 72.9482 32.1888C73.6221 32.4993 74.4234 32.6637 75.3705 32.6637C76.9732 32.6089 77.7928 31.9878 77.7928 30.8369C77.7928 30.2341 77.5196 29.7774 76.9732 29.4668C76.4268 29.1562 75.5709 28.8457 74.4234 28.5351C73.2214 28.2063 72.2561 27.8775 71.4912 27.5486C70.7445 27.2198 70.0888 26.7083 69.5424 26.0506C68.9961 25.3747 68.7229 24.4796 68.7229 23.3287C68.7229 22.3422 69.0143 21.4653 69.5789 20.7346C70.1435 20.0039 70.8902 19.4376 71.8008 19.0174C72.7114 18.6155 73.6949 18.4146 74.7331 18.4146C75.7894 18.4146 76.8457 18.6155 77.8839 18.9991C78.9402 19.401 79.7598 19.9673 80.3608 20.7346C80.634 21.0634 80.7615 21.4471 80.7615 21.849C80.7615 22.3239 80.5611 22.7258 80.1787 23.0364C79.8873 23.2556 79.5594 23.3835 79.1952 23.3835C78.7399 23.3835 78.3756 23.2373 78.0842 22.9451C77.7199 22.4884 77.2282 22.123 76.6454 21.849C76.0626 21.5749 75.3887 21.4471 74.642 21.4471C73.0757 21.4471 72.2926 22.0134 72.2926 23.1643C72.2926 23.621 72.4383 23.9863 72.7297 24.2604C73.0211 24.5344 73.3853 24.7536 73.8224 24.918C74.2595 25.0824 74.897 25.2651 75.6983 25.4843C76.8093 25.7949 77.7382 26.1237 78.4849 26.4525C79.2316 26.7814 79.8508 27.2929 80.379 27.9688C80.889 28.6447 81.1622 29.5581 81.1622 30.6725C81.1622 31.6955 80.8707 32.5724 80.2697 33.3214C79.6687 34.0704 78.9038 34.655 77.9567 35.0386C77.0097 35.4405 76.0444 35.6232 75.0609 35.6232C73.6949 35.6232 72.42 35.404 71.2544 34.9472C70.0706 34.4905 69.1235 33.7598 68.3768 32.7368C68.1947 32.4993 68.0854 32.1888 68.0854 31.8234Z" fill="#F4F4F4"/>
<path d="M99.1562 27.8409C98.792 28.1514 98.3549 28.3159 97.8631 28.3159H87.6458C87.9008 29.5398 88.4654 30.4898 89.3578 31.184C90.2502 31.8782 91.2519 32.2252 92.3629 32.2252C93.2007 32.2252 93.8745 32.1522 94.3481 31.9878C94.8216 31.8233 95.2041 31.6589 95.4773 31.4945C95.7504 31.3118 95.9508 31.2022 96.0419 31.1292C96.4061 30.9465 96.7704 30.8551 97.0982 30.8551C97.5353 30.8551 97.8996 31.0195 98.2092 31.3301C98.5188 31.6407 98.6827 32.006 98.6827 32.4262C98.6827 32.9925 98.3913 33.4858 97.8085 33.9425C97.2257 34.4174 96.4607 34.8193 95.4773 35.1482C94.512 35.477 93.5285 35.6414 92.5268 35.6414C90.7966 35.6414 89.2849 35.276 87.9918 34.5453C86.6987 33.8146 85.697 32.8281 85.0049 31.5493C84.2946 30.2706 83.9486 28.8456 83.9486 27.2563C83.9486 25.4843 84.3129 23.9132 85.0596 22.5614C85.8063 21.2095 86.7898 20.1865 88.01 19.4741C89.2303 18.7616 90.5234 18.3962 91.9076 18.3962C93.2735 18.3962 94.5484 18.7616 95.7687 19.5106C96.9707 20.2596 97.936 21.2643 98.6645 22.5248C99.393 23.7853 99.7572 25.1555 99.7572 26.6169C99.7208 27.1284 99.5205 27.5303 99.1562 27.8409ZM95.8597 15.4916C95.8962 15.6195 95.9144 15.7656 95.9144 15.9666C95.9144 16.1675 95.8233 16.3502 95.6594 16.5146C95.4773 16.679 95.2587 16.7521 94.9855 16.7521C94.6759 16.7521 94.4391 16.7156 94.2934 16.6242C94.1295 16.5329 93.9838 16.4415 93.8199 16.2954C93.656 16.1675 93.5467 16.0579 93.4557 16.0031L91.8165 14.5417L90.0499 16.0031C89.9588 16.0579 89.8313 16.1675 89.6674 16.3319C89.4853 16.4963 89.3214 16.5877 89.1574 16.6608C88.9935 16.7156 88.7932 16.7521 88.5382 16.7521C88.265 16.7521 88.0465 16.679 87.8643 16.5146C87.6822 16.3502 87.6094 16.1858 87.6094 15.9666C87.6094 15.7839 87.6276 15.6195 87.664 15.4916C87.7004 15.3637 87.8097 15.1993 87.9736 14.9984L89.4853 13.0802C89.9588 12.4773 90.5962 12.1851 91.3794 12.1851H92.4904C92.9093 12.1851 93.2371 12.2399 93.4739 12.3677C93.7106 12.4956 93.9474 12.7331 94.1659 13.0802L95.5319 14.9984C95.714 15.1993 95.8233 15.3637 95.8597 15.4916ZM87.664 25.2103H95.7687V24.991C95.6776 24.1142 95.2587 23.3834 94.4938 22.7623C93.7288 22.1412 92.8546 21.8307 91.8894 21.8307C89.5035 21.8307 88.1011 22.945 87.664 25.2103Z" fill="#F4F4F4"/>
<path d="M126.803 20.2961C127.586 21.5566 127.987 23.2738 127.987 25.5026V33.4309C127.987 33.9607 127.805 34.4174 127.459 34.7828C127.113 35.1482 126.658 35.3308 126.129 35.3308C125.601 35.3308 125.146 35.1482 124.8 34.7828C124.454 34.4174 124.272 33.979 124.272 33.4309V25.4843C124.272 24.3517 124.053 23.4565 123.598 22.7989C123.161 22.1412 122.378 21.8124 121.267 21.8124C120.119 21.8124 119.209 22.1595 118.553 22.8537C117.897 23.5479 117.569 24.4247 117.569 25.4843V33.4309C117.569 33.9607 117.387 34.4174 117.041 34.7828C116.695 35.1482 116.24 35.3308 115.712 35.3308C115.184 35.3308 114.728 35.1482 114.382 34.7828C114.036 34.4174 113.854 33.979 113.854 33.4309V25.4843C113.854 24.3517 113.635 23.4565 113.18 22.7989C112.743 22.1412 111.96 21.8124 110.849 21.8124C109.702 21.8124 108.791 22.1595 108.135 22.8537C107.48 23.5479 107.152 24.4247 107.152 25.4843V33.4309C107.152 33.9607 106.97 34.4174 106.624 34.7828C106.278 35.1482 105.822 35.3308 105.294 35.3308C104.766 35.3308 104.311 35.1482 103.965 34.7828C103.618 34.4174 103.436 33.979 103.436 33.4309V20.6067C103.436 20.0769 103.618 19.6202 103.965 19.2548C104.311 18.8895 104.766 18.7068 105.294 18.7068C105.822 18.7068 106.278 18.8895 106.624 19.2548C106.97 19.6202 107.152 20.0586 107.152 20.6067V21.0999C107.716 20.3509 108.408 19.7115 109.264 19.1818C110.12 18.652 111.067 18.3962 112.124 18.3962C114.728 18.3962 116.386 19.5289 117.114 21.8124C117.588 20.9355 118.298 20.15 119.263 19.4558C120.228 18.7433 121.303 18.3962 122.523 18.3962C124.6 18.4145 126.02 19.0356 126.803 20.2961Z" fill="#F4F4F4"/>
<path d="M146.892 27.8409C146.528 28.1514 146.091 28.3159 145.599 28.3159H135.381C135.636 29.5398 136.201 30.4898 137.093 31.184C137.986 31.8781 138.988 32.2252 140.099 32.2252C140.936 32.2252 141.61 32.1522 142.084 31.9878C142.557 31.8233 142.94 31.6589 143.213 31.4945C143.486 31.3118 143.686 31.2022 143.778 31.1292C144.142 30.9465 144.506 30.8551 144.834 30.8551C145.271 30.8551 145.635 31.0195 145.945 31.3301C146.254 31.6407 146.418 32.006 146.418 32.4262C146.418 32.9925 146.127 33.4858 145.544 33.9425C144.961 34.4174 144.196 34.8193 143.213 35.1482C142.248 35.477 141.264 35.6414 140.262 35.6414C138.532 35.6414 137.021 35.276 135.728 34.5453C134.434 33.8146 133.433 32.8281 132.741 31.5493C132.03 30.2706 131.684 28.8456 131.684 27.2563C131.684 25.4843 132.049 23.9132 132.795 22.5614C133.542 21.2095 134.525 20.1865 135.746 19.4741C136.966 18.7616 138.259 18.3962 139.643 18.3962C141.009 18.3962 142.284 18.7616 143.504 19.5106C144.706 20.2596 145.672 21.2643 146.4 22.5248C147.129 23.7854 147.493 25.1555 147.493 26.6169C147.457 27.1284 147.256 27.5303 146.892 27.8409ZM135.4 25.2103H143.504V24.9911C143.413 24.1142 142.994 23.3835 142.229 22.7623C141.465 22.1412 140.59 21.8307 139.625 21.8307C137.257 21.8307 135.837 22.945 135.4 25.2103Z" fill="#F4F4F4"/>
<path d="M151.318 16.3502C151.026 16.1309 150.88 15.7108 150.88 15.1445V14.5599C150.88 13.9753 151.044 13.5734 151.354 13.3542C151.664 13.135 152.155 13.0071 152.847 13.0071C153.576 13.0071 154.068 13.1167 154.359 13.3542C154.651 13.5734 154.796 13.9936 154.796 14.5599V15.1445C154.796 15.7473 154.651 16.1492 154.341 16.3684C154.05 16.5876 153.54 16.6973 152.811 16.6973C152.101 16.6973 151.609 16.5876 151.318 16.3502ZM154.177 34.7827C153.831 35.1481 153.376 35.3308 152.847 35.3308C152.319 35.3308 151.864 35.1481 151.518 34.7827C151.172 34.4174 150.99 33.9789 150.99 33.4309V20.6066C150.99 20.0769 151.172 19.6202 151.518 19.2548C151.864 18.8894 152.319 18.7068 152.847 18.7068C153.376 18.7068 153.831 18.8894 154.177 19.2548C154.523 19.6202 154.705 20.0586 154.705 20.6066V33.4309C154.687 33.9789 154.523 34.4356 154.177 34.7827Z" fill="#F4F4F4"/>
<path d="M173.865 18.9443C174.211 19.2914 174.393 19.7481 174.393 20.3144V33.4309C174.393 33.9607 174.211 34.4174 173.865 34.7828C173.519 35.1481 173.064 35.3308 172.535 35.3308C172.007 35.3308 171.552 35.1481 171.224 34.8011C170.878 34.454 170.696 33.9972 170.678 33.4675C170.168 34.0703 169.457 34.5818 168.583 35.002C167.709 35.4222 166.78 35.6414 165.815 35.6414C164.394 35.6414 163.101 35.276 161.936 34.5453C160.788 33.8146 159.859 32.7915 159.204 31.4945C158.53 30.1975 158.202 28.7177 158.202 27.0553C158.202 25.3929 158.53 23.9132 159.186 22.5979C159.841 21.2826 160.752 20.2596 161.899 19.5289C163.047 18.7981 164.303 18.4328 165.687 18.4328C166.671 18.4328 167.6 18.6154 168.474 18.9808C169.348 19.3462 170.077 19.8029 170.678 20.3692V20.3327C170.678 19.8029 170.86 19.3462 171.206 18.9808C171.552 18.6154 172.007 18.4328 172.535 18.4328C173.064 18.4145 173.501 18.5789 173.865 18.9443ZM169.549 30.7455C170.386 29.759 170.823 28.5168 170.823 27.0371C170.823 25.5391 170.405 24.2968 169.549 23.3104C168.711 22.3239 167.6 21.8124 166.27 21.8124C164.941 21.8124 163.866 22.3056 163.01 23.3104C162.172 24.2968 161.735 25.5391 161.735 27.0371C161.735 28.5351 162.154 29.759 162.992 30.7455C163.83 31.732 164.923 32.2252 166.252 32.2252C167.618 32.2252 168.711 31.732 169.549 30.7455Z" fill="#F4F4F4"/>
</svg>
