<svg width="39" height="32" viewBox="0 0 39 32" fill="none" xmlns="http://www.w3.org/2000/svg">
<path d="M0.963383 7.19187C2.99398 3.64414 6.5561 3.1376 7.97986 3.08435C8.69542 2.24683 10.5786 0.659083 14.8352 0.126157C15.5042 0.0422122 16.184 0 16.8555 0C20.3672 0 22.9483 1.13876 23.9136 1.63955C24.2991 1.5417 24.8946 1.43521 25.6611 1.43521C27.1545 1.43521 28.6948 1.82519 30.2405 2.59508C32.9298 3.93435 33.6885 5.98019 33.7375 7.37942C34.7498 7.77468 36.3891 8.76091 37.5293 11.1732C38.7924 13.8465 38.2982 15.7916 37.9147 16.6824C38.3428 17.613 39.1411 19.7691 38.5554 21.9085C37.8721 24.4024 35.0408 24.7732 33.8369 24.8154C33.2193 25.698 31.7906 27.5448 30.2043 28.2556C29.7292 28.4686 29.165 28.5766 28.5268 28.5766C27.4939 28.5766 26.3953 28.2911 25.5838 28.0192L25.1797 31.1601H21.4697L20.4167 31.1918L20.4911 30.1643C20.4911 30.1446 20.496 29.665 20.2266 27.6565C20.019 26.1158 19.1721 24.1218 18.747 23.1926C17.1357 23.1154 13.1337 22.7264 11.7859 20.7726C10.7667 19.2952 10.6295 17.9291 10.7079 17.0086C9.0319 16.7572 5.7607 16.1936 4.06364 15.4088C1.96203 14.4365 0.703316 13.2363 0.215012 11.7397C-0.232639 10.3707 0.0195923 8.84053 0.963383 7.19187Z"/>
</svg>
