<svg width="30" height="26" viewBox="0 0 30 26" fill="none" xmlns="http://www.w3.org/2000/svg">
<path d="M26.3945 4.00763C27.662 3.2172 28.6351 1.96263 29.0933 0.468877C27.9061 1.20071 26.5945 1.73453 25.1931 2.01966C24.0767 0.776182 22.4801 0 20.7135 0C17.3266 0 14.5774 2.86554 14.5774 6.39796C14.5774 6.9001 14.6293 7.3864 14.7348 7.85528C9.63321 7.58758 5.11263 5.0436 2.08315 1.16744C1.5541 2.11628 1.25336 3.21561 1.25336 4.38781C1.25336 6.60705 2.33666 8.56493 3.98366 9.71337C2.97908 9.68169 2.03119 9.3918 1.2014 8.91501V8.99421C1.2014 12.0958 3.31762 14.6825 6.12665 15.267C5.61176 15.4175 5.07011 15.492 4.50956 15.492C4.11435 15.492 3.72858 15.4539 3.35383 15.3779C4.13482 17.9187 6.40062 19.7689 9.08684 19.8196C6.98636 21.5367 4.33794 22.56 1.46435 22.56C0.969934 22.56 0.478669 22.5315 0 22.4729C2.71613 24.285 5.944 25.3447 9.40805 25.3447C20.6993 25.3447 26.8716 15.5965 26.8716 7.14088L26.8558 6.31084C28.0557 5.40793 29.0965 4.28326 29.9168 2.9986C28.8178 3.50708 27.6337 3.8524 26.3929 4.00605L26.3945 4.00763Z" fill="#F4F4F4"/>
</svg>
