<svg viewBox="0 0 137 111" fill="none" xmlns="http://www.w3.org/2000/svg">
<path d="M102.494 27.2649L89.5324 4.7468C87.8306 1.80051 84.7067 0 81.3498 0H55.4265C52.0462 0 48.9223 1.80051 47.2205 4.7468L34.2589 27.2649C32.5804 30.1878 32.5804 33.8122 34.2589 36.7351L47.2205 59.2532C48.899 62.1761 52.0229 64 55.4031 64H81.3264C84.7067 64 87.8306 62.1995 89.5091 59.2532L102.471 36.7351C104.173 33.8122 104.173 30.1878 102.494 27.2649ZM66.0336 19.1509L72.1647 29.8137C72.934 31.1699 72.934 32.8535 72.1647 34.2097L66.0336 44.8725L65.7305 45.3869H66.3366H78.6222C81.0467 45.3869 83.0049 47.3511 83.0049 49.783C83.0049 52.2148 81.0467 54.179 78.6222 54.179H58.154C56.5921 54.179 55.1467 53.3372 54.3541 51.981C53.5848 50.6248 53.5848 48.9412 54.3541 47.5849L63.2128 32.1754L63.306 32.0117L63.2128 31.848L54.3541 16.4384C53.5848 15.0822 53.5848 13.3986 54.3541 12.0424C55.1234 10.6862 56.5921 9.84435 58.154 9.84435H78.6222C81.0467 9.84435 83.0049 11.8085 83.0049 14.2404C83.0049 16.6723 81.0467 18.6365 78.6222 18.6365H66.3366H65.7305L66.0336 19.1509Z" fill="#F4F4F4"/>
<path d="M0 105.137C0 104.459 0.349687 103.874 1.02575 103.383C1.39875 103.149 1.77176 103.032 2.16807 103.032C2.72757 103.032 3.24044 103.29 3.75332 103.781C4.54595 104.599 5.36189 105.207 6.22445 105.604C7.08701 106.002 8.11276 106.212 9.32501 106.212C11.3765 106.142 12.4256 105.347 12.4256 103.874C12.4256 103.102 12.0759 102.518 11.3765 102.12C10.6771 101.723 9.58146 101.325 8.11277 100.928C6.57414 100.507 5.33857 100.086 4.35945 99.6652C3.40363 99.2443 2.56438 98.5896 1.865 97.7478C1.16563 96.8826 0.815939 95.7368 0.815939 94.2637C0.815939 93.001 1.18894 91.8786 1.91163 90.9433C2.63432 90.008 3.59013 89.2831 4.75576 88.7453C5.92138 88.2308 7.18026 87.9736 8.50907 87.9736C9.8612 87.9736 11.2133 88.2308 12.5421 88.7219C13.8943 89.2363 14.9433 89.9612 15.7126 90.9433C16.0623 91.3642 16.2255 91.8552 16.2255 92.3696C16.2255 92.9776 15.9691 93.492 15.4795 93.8895C15.1065 94.1701 14.6869 94.3338 14.2206 94.3338C13.6378 94.3338 13.1716 94.1468 12.7986 93.7726C12.3323 93.1881 11.7029 92.7204 10.9569 92.3696C10.2109 92.0189 9.34833 91.8552 8.39251 91.8552C6.38763 91.8552 5.3852 92.5801 5.3852 94.0532C5.3852 94.6378 5.5717 95.1055 5.9447 95.4562C6.3177 95.807 6.78395 96.0876 7.34345 96.298C7.90295 96.5085 8.71889 96.7423 9.74464 97.0229C11.1667 97.4204 12.3556 97.8413 13.3115 98.2622C14.2673 98.6831 15.0599 99.3378 15.736 100.203C16.3887 101.068 16.7384 102.237 16.7384 103.664C16.7384 104.973 16.3654 106.096 15.5961 107.054C14.8268 108.013 13.8476 108.761 12.6354 109.252C11.4231 109.767 10.1876 110 8.9287 110C7.18026 110 5.54838 109.72 4.05638 109.135C2.54106 108.551 1.32882 107.615 0.373002 106.306C0.139877 106.002 0 105.604 0 105.137Z" fill="#F4F4F4"/>
<path d="M39.7704 100.04C39.3041 100.437 38.7446 100.648 38.1152 100.648H25.0371C25.3634 102.214 26.0861 103.43 27.2284 104.319C28.3707 105.207 29.6529 105.652 31.0749 105.652C32.1473 105.652 33.0098 105.558 33.6159 105.348C34.2221 105.137 34.7116 104.927 35.0613 104.716C35.411 104.483 35.6674 104.342 35.784 104.249C36.2502 104.015 36.7165 103.898 37.1361 103.898C37.6956 103.898 38.1618 104.108 38.5581 104.506C38.9544 104.903 39.1643 105.371 39.1643 105.909C39.1643 106.634 38.7913 107.265 38.0453 107.85C37.2993 108.458 36.3202 108.972 35.0613 109.393C33.8258 109.814 32.5669 110.024 31.2847 110.024C29.0701 110.024 27.1352 109.557 25.48 108.621C23.8248 107.686 22.5427 106.423 21.6568 104.787C20.7476 103.15 20.3047 101.326 20.3047 99.2914C20.3047 97.0232 20.7709 95.0122 21.7267 93.2818C22.6825 91.5514 23.9414 90.242 25.5033 89.33C27.0652 88.4181 28.7204 87.9504 30.4921 87.9504C32.2405 87.9504 33.8724 88.4181 35.4343 89.3768C36.9729 90.3355 38.2085 91.6216 39.1409 93.2351C40.0734 94.8485 40.5397 96.6023 40.5397 98.473C40.493 99.1277 40.2366 99.6421 39.7704 100.04ZM35.5509 84.2324C35.5975 84.3961 35.6208 84.5832 35.6208 84.8404C35.6208 85.0976 35.5042 85.3314 35.2944 85.5419C35.0613 85.7523 34.7816 85.8459 34.4319 85.8459C34.0356 85.8459 33.7325 85.7991 33.546 85.6822C33.3362 85.5653 33.1497 85.4484 32.9399 85.2613C32.7301 85.0976 32.5902 84.9573 32.4737 84.8872L30.3756 83.0165L28.1143 84.8872C27.9977 84.9573 27.8345 85.0976 27.6247 85.3081C27.3916 85.5185 27.1818 85.6354 26.972 85.729C26.7622 85.7991 26.5057 85.8459 26.1794 85.8459C25.8297 85.8459 25.5499 85.7523 25.3168 85.5419C25.0837 85.3314 24.9904 85.121 24.9904 84.8404C24.9904 84.6066 25.0138 84.3961 25.0604 84.2324C25.107 84.0687 25.2469 83.8583 25.4567 83.6011L27.3916 81.1458C27.9977 80.3741 28.8136 80 29.8161 80H31.2381C31.7743 80 32.1939 80.0702 32.497 80.2338C32.8 80.3975 33.1031 80.7015 33.3828 81.1458L35.1312 83.6011C35.3644 83.8583 35.5042 84.0687 35.5509 84.2324ZM25.0604 96.6724H35.4343V96.3918C35.3177 95.2694 34.7816 94.3341 33.8025 93.539C32.8233 92.744 31.7044 92.3465 30.4688 92.3465C27.4149 92.3465 25.6199 93.7729 25.0604 96.6724Z" fill="#F4F4F4"/>
<path d="M75.1589 90.383C76.1613 91.9965 76.6742 94.1945 76.6742 97.0473V107.196C76.6742 107.874 76.4411 108.458 75.9981 108.926C75.5552 109.394 74.9724 109.627 74.2963 109.627C73.6203 109.627 73.0375 109.394 72.5945 108.926C72.1516 108.458 71.9185 107.897 71.9185 107.196V97.0239C71.9185 95.5741 71.6388 94.4283 71.0559 93.5865C70.4965 92.7447 69.494 92.3238 68.072 92.3238C66.6033 92.3238 65.4377 92.7681 64.5984 93.6567C63.7592 94.5452 63.3396 95.6676 63.3396 97.0239V107.196C63.3396 107.874 63.1065 108.458 62.6635 108.926C62.2206 109.394 61.6378 109.627 60.9617 109.627C60.2857 109.627 59.7029 109.394 59.2599 108.926C58.817 108.458 58.5839 107.897 58.5839 107.196V97.0239C58.5839 95.5741 58.3041 94.4283 57.7213 93.5865C57.1618 92.7447 56.1594 92.3238 54.7374 92.3238C53.2687 92.3238 52.1031 92.7681 51.2638 93.6567C50.4246 94.5452 50.005 95.6676 50.005 97.0239V107.196C50.005 107.874 49.7718 108.458 49.3289 108.926C48.886 109.394 48.3032 109.627 47.6271 109.627C46.9511 109.627 46.3683 109.394 45.9253 108.926C45.4824 108.458 45.2493 107.897 45.2493 107.196V90.7805C45.2493 90.1024 45.4824 89.5179 45.9253 89.0502C46.3683 88.5825 46.9511 88.3487 47.6271 88.3487C48.3032 88.3487 48.886 88.5825 49.3289 89.0502C49.7718 89.5179 50.005 90.079 50.005 90.7805V91.4119C50.7277 90.4532 51.6135 89.6348 52.7092 88.9567C53.8049 88.2785 55.0171 87.9512 56.3692 87.9512C59.7029 87.9512 61.8243 89.4009 62.7568 92.3238C63.3629 91.2014 64.2721 90.196 65.5076 89.3074C66.7432 88.3955 68.1186 87.9512 69.6805 87.9512C72.3381 87.9746 74.1565 88.7696 75.1589 90.383Z" fill="#F4F4F4"/>
<path d="M100.872 100.04C100.406 100.438 99.8467 100.648 99.2172 100.648H86.1389C86.4653 102.215 87.188 103.431 88.3303 104.319C89.4726 105.208 90.7548 105.652 92.1769 105.652C93.2492 105.652 94.1118 105.559 94.7179 105.348C95.324 105.138 95.8136 104.927 96.1633 104.717C96.513 104.483 96.7694 104.343 96.886 104.249C97.3522 104.015 97.8185 103.899 98.2381 103.899C98.7976 103.899 99.2639 104.109 99.6602 104.506C100.056 104.904 100.266 105.372 100.266 105.909C100.266 106.634 99.8933 107.266 99.1473 107.85C98.4013 108.458 97.4222 108.973 96.1633 109.394C94.9277 109.814 93.6689 110.025 92.3867 110.025C90.172 110.025 88.237 109.557 86.5819 108.622C84.9267 107.687 83.6445 106.424 82.7586 104.787C81.8494 103.15 81.4065 101.326 81.4065 99.292C81.4065 97.0238 81.8728 95.0129 82.8286 93.2825C83.7844 91.5522 85.0432 90.2427 86.6052 89.3308C88.1671 88.4188 89.8223 87.9512 91.594 87.9512C93.3425 87.9512 94.9744 88.4188 96.5363 89.3775C98.0749 90.3363 99.3105 91.6223 100.243 93.2358C101.175 94.8492 101.642 96.603 101.642 98.4736C101.595 99.1283 101.339 99.6428 100.872 100.04ZM86.1622 96.6731H96.5363V96.3925C96.4197 95.2701 95.8835 94.3348 94.9044 93.5398C93.9253 92.7447 92.8063 92.3472 91.5707 92.3472C88.5401 92.3472 86.7217 93.7736 86.1622 96.6731Z" fill="#F4F4F4"/>
<path d="M106.537 85.3319C106.164 85.0513 105.978 84.5134 105.978 83.7886V83.0403C105.978 82.292 106.187 81.7776 106.584 81.497C106.98 81.2164 107.609 81.0527 108.495 81.0527C109.428 81.0527 110.057 81.193 110.43 81.497C110.803 81.7776 110.99 82.3154 110.99 83.0403V83.7886C110.99 84.5602 110.803 85.0746 110.407 85.3552C110.034 85.6358 109.381 85.7761 108.449 85.7761C107.539 85.7761 106.91 85.6358 106.537 85.3319ZM110.197 108.925C109.754 109.393 109.171 109.627 108.495 109.627C107.819 109.627 107.236 109.393 106.793 108.925C106.351 108.458 106.117 107.897 106.117 107.195V90.7801C106.117 90.102 106.351 89.5174 106.793 89.0498C107.236 88.5821 107.819 88.3483 108.495 88.3483C109.171 88.3483 109.754 88.5821 110.197 89.0498C110.64 89.5174 110.873 90.0786 110.873 90.7801V107.195C110.85 107.897 110.64 108.481 110.197 108.925Z" fill="#F4F4F4"/>
<path d="M135.398 88.6526C135.841 89.0969 136.074 89.6814 136.074 90.4063V107.196C136.074 107.874 135.841 108.458 135.398 108.926C134.955 109.394 134.372 109.627 133.696 109.627C133.02 109.627 132.437 109.394 132.017 108.949C131.574 108.505 131.341 107.92 131.318 107.242C130.665 108.014 129.756 108.669 128.637 109.206C127.518 109.744 126.329 110.025 125.094 110.025C123.275 110.025 121.62 109.557 120.128 108.622C118.659 107.687 117.471 106.377 116.631 104.717C115.769 103.057 115.349 101.163 115.349 99.0348C115.349 96.9069 115.769 95.0128 116.608 93.3292C117.447 91.6456 118.613 90.3362 120.082 89.4008C121.55 88.4655 123.159 87.9978 124.93 87.9978C126.189 87.9978 127.378 88.2317 128.497 88.6993C129.616 89.167 130.549 89.7516 131.318 90.4765V90.4297C131.318 89.7516 131.551 89.167 131.994 88.6993C132.437 88.2317 133.02 87.9978 133.696 87.9978C134.372 87.9745 134.931 88.1849 135.398 88.6526ZM129.873 103.758C130.945 102.495 131.505 100.905 131.505 99.0114C131.505 97.0939 130.968 95.5039 129.873 94.2412C128.8 92.9785 127.378 92.3238 125.676 92.3238C123.975 92.3238 122.599 92.9551 121.504 94.2412C120.431 95.5039 119.872 97.0939 119.872 99.0114C119.872 100.929 120.408 102.495 121.48 103.758C122.553 105.021 123.951 105.652 125.653 105.652C127.402 105.652 128.8 105.021 129.873 103.758Z" fill="#F4F4F4"/>
</svg>
