<svg width="129" height="129" viewBox="0 0 129 129" fill="none" xmlns="http://www.w3.org/2000/svg">
<rect width="129" height="129" fill="white"/>
<path d="M38.6667 86.3707C29.4619 86.3707 22 78.9088 22 69.704C22 60.4993 29.4619 53.0374 38.6667 53.0374" stroke="#FC1369" stroke-width="3" stroke-linecap="round" stroke-linejoin="round"/>
<path d="M38.1904 53.0374L57.7142 53.0374C60.0812 53.0374 62 54.9561 62 57.3231V57.3231C62 59.69 60.0812 61.6088 57.7142 61.6088H46.2857" stroke="#FC1369" stroke-width="3" stroke-linecap="round" stroke-linejoin="round"/>
<path d="M46.2856 61.6089H57.9523C60.1878 61.6089 61.9999 63.4211 61.9999 65.6565V65.6565C61.9999 67.8919 60.1878 69.7041 57.9523 69.7041H46.2856" stroke="#FC1369" stroke-width="3" stroke-linecap="round" stroke-linejoin="round"/>
<path d="M46.2856 69.7041H57.9523C60.1878 69.7041 61.9999 71.5163 61.9999 73.7517V73.7517C61.9999 75.9872 60.1878 77.7993 57.9523 77.7993H46.2856" stroke="#FC1369" stroke-width="3" stroke-linecap="round" stroke-linejoin="round"/>
<path d="M46.2858 78.2754H57.9525C60.1879 78.2754 62.0001 80.0876 62.0001 82.323V82.323C62.0001 84.5584 60.1879 86.3706 57.9525 86.3706H38.6667" stroke="#FC1369" stroke-width="3" stroke-linecap="round" stroke-linejoin="round"/>
<path d="M35 53.585L43.3907 49.7286C47.107 48.0206 51.4954 49.7818 53 53.585V53.585" stroke="#FC1369" stroke-width="3" stroke-linecap="round" stroke-linejoin="round"/>
<path d="M91.3333 86.3707C100.538 86.3707 108 78.9088 108 69.704C108 60.4993 100.538 53.0374 91.3333 53.0374" stroke="#FC1369" stroke-width="3" stroke-linecap="round" stroke-linejoin="round"/>
<path d="M91.8096 53.0374L72.2858 53.0374C69.9188 53.0374 68 54.9561 68 57.3231V57.3231C68 59.69 69.9188 61.6088 72.2858 61.6088H83.7143" stroke="#FC1369" stroke-width="3" stroke-linecap="round" stroke-linejoin="round"/>
<path d="M83.7144 61.6089H72.0477C69.8122 61.6089 68.0001 63.4211 68.0001 65.6565V65.6565C68.0001 67.8919 69.8122 69.7041 72.0477 69.7041H83.7144" stroke="#FC1369" stroke-width="3" stroke-linecap="round" stroke-linejoin="round"/>
<path d="M83.7144 69.7041H72.0477C69.8122 69.7041 68.0001 71.5163 68.0001 73.7517V73.7517C68.0001 75.9872 69.8122 77.7993 72.0477 77.7993H83.7144" stroke="#FC1369" stroke-width="3" stroke-linecap="round" stroke-linejoin="round"/>
<path d="M83.7142 78.2754H72.0475C69.8121 78.2754 67.9999 80.0876 67.9999 82.323V82.323C67.9999 84.5584 69.8121 86.3706 72.0475 86.3706H91.3333" stroke="#FC1369" stroke-width="3" stroke-linecap="round" stroke-linejoin="round"/>
<path d="M95 53.585L86.6093 49.7286C82.893 48.0206 78.5046 49.7818 77 53.585V53.585" stroke="#FC1369" stroke-width="3" stroke-linecap="round" stroke-linejoin="round"/>
<path d="M57.9245 44.5848L50 36.0942" stroke="#FC1369" stroke-width="3" stroke-linecap="round" stroke-linejoin="round"/>
<path d="M72.0755 44.5848L80 36.0942" stroke="#FC1369" stroke-width="3" stroke-linecap="round" stroke-linejoin="round"/>
<path d="M65.283 42.3208V31" stroke="#FC1369" stroke-width="3" stroke-linecap="round" stroke-linejoin="round"/>
</svg>
